<svg xmlns="http://www.w3.org/2000/svg" width="32" height="32" fill="none" viewBox="0 0 24 24">
  <path
    fill="#F56400"
    d="m7.698 23.686-3.201-4.414a.658.658 0 0 1 .408-1.046l5.311-1.098a.77.77 0 0 1 .772.299l3.2 4.414a.658.658 0 0 1-.408 1.045l-5.31 1.099a.77.77 0 0 1-.772-.3M5.617 16.712l-3.2-4.414a.658.658 0 0 1 .408-1.045l13.617-2.815a.77.77 0 0 1 .771.299l3.2 4.414a.658.658 0 0 1-.407 1.045L6.389 17.011a.77.77 0 0 1-.772-.299M3.535 9.39l-3.2-4.413A.658.658 0 0 1 .741 3.93L19.684.015a.77.77 0 0 1 .772.299l3.2 4.414a.658.658 0 0 1-.407 1.046L4.307 9.69a.77.77 0 0 1-.772-.3"
  />
</svg>
